<svg width="487" height="684" viewBox="0 0 487 684" fill="none" xmlns="http://www.w3.org/2000/svg">
<g clip-path="url(#clip0_1_2)" filter="url(#filter0_d_1_2)">
<path d="M113.102 374.531V578.247L27.7064 498.677V294.947L113.102 374.531Z" fill="white"/>
<path d="M316.928 374.531H113.102V578.247H316.928V374.531Z" fill="white"/>
<path d="M316.928 374.531H113.102L27.7064 294.947H231.519L316.928 374.531Z" fill="white"/>
<path d="M113.111 585C111.398 584.999 109.749 584.349 108.497 583.181L23.0931 503.623C22.4144 502.99 21.8732 502.224 21.5031 501.373C21.1329 500.522 20.9417 499.604 20.9414 498.676V294.952C20.942 293.635 21.3273 292.347 22.0501 291.245C22.7728 290.144 23.8016 289.278 25.01 288.753C26.2183 288.228 27.5538 288.067 28.8523 288.291C30.1508 288.514 31.3559 289.111 32.3196 290.009L117.715 369.584C118.393 370.217 118.934 370.983 119.304 371.834C119.675 372.685 119.866 373.603 119.867 374.531V578.256C119.861 580.044 119.147 581.758 117.881 583.021C116.615 584.285 114.9 584.997 113.111 585ZM34.4713 495.736L106.337 562.699V377.471L34.4713 310.495V495.736Z" fill="black"/>
<path d="M316.932 585H113.111C111.316 585 109.596 584.288 108.327 583.02C107.058 581.752 106.346 580.032 106.346 578.238V374.513C106.346 372.72 107.058 371 108.327 369.732C109.596 368.464 111.316 367.752 113.111 367.752H316.932C318.726 367.752 320.447 368.464 321.716 369.732C322.984 371 323.697 372.72 323.697 374.513V578.238C323.697 580.032 322.984 581.752 321.716 583.02C320.447 584.288 318.726 585 316.932 585ZM119.871 571.477H310.163V381.275H119.871V571.477Z" fill="black"/>
<path d="M316.932 381.275H113.111C111.399 381.275 109.75 380.627 108.497 379.46L23.0931 299.894C22.0992 298.969 21.4072 297.765 21.1071 296.441C20.807 295.117 20.9127 293.733 21.4105 292.47C21.9082 291.206 22.775 290.122 23.8979 289.358C25.0208 288.594 26.3479 288.185 27.7064 288.185H231.528C233.241 288.186 234.889 288.836 236.141 290.005L321.541 369.584C322.528 370.51 323.215 371.712 323.511 373.033C323.808 374.353 323.701 375.733 323.204 376.992C322.708 378.252 321.845 379.333 320.726 380.097C319.608 380.86 318.286 381.271 316.932 381.275ZM115.764 367.752H299.749L228.852 301.709H44.8806L115.764 367.752Z" fill="black"/>
<path d="M195.353 435.97C197.355 423.642 188.979 412.025 176.645 410.024C164.311 408.023 152.689 416.395 150.687 428.723C148.685 441.052 157.06 452.668 169.395 454.669C181.729 456.67 193.351 448.299 195.353 435.97Z" fill="black"/>
<path d="M282.24 448.32C291.076 439.489 291.076 425.17 282.24 416.338C273.404 407.507 259.078 407.507 250.243 416.338C241.407 425.17 241.407 439.489 250.243 448.32C259.078 457.152 273.404 457.152 282.24 448.32Z" fill="black"/>
<path d="M195.354 529.802C197.356 517.474 188.98 505.857 176.646 503.856C164.311 501.855 152.689 510.227 150.687 522.555C148.685 534.883 157.061 546.5 169.395 548.501C181.729 550.502 193.351 542.13 195.354 529.802Z" fill="black"/>
<path d="M282.242 542.149C291.078 533.318 291.078 518.999 282.242 510.167C273.406 501.335 259.08 501.335 250.245 510.167C241.409 518.999 241.409 533.318 250.245 542.149C259.08 550.981 273.406 550.981 282.242 542.149Z" fill="black"/>
<path d="M128.483 319.351C128.703 313.848 117.492 308.932 103.441 308.37C89.3907 307.809 77.8221 311.814 77.6019 317.317C77.3816 322.82 88.5933 327.736 102.644 328.298C116.694 328.86 128.263 324.854 128.483 319.351Z" fill="black"/>
<path d="M266.22 349.957C266.431 344.458 255.221 339.563 241.18 339.024C227.14 338.485 215.587 342.505 215.376 348.004C215.165 353.503 226.375 358.398 240.415 358.937C254.455 359.476 266.008 355.455 266.22 349.957Z" fill="black"/>
<path d="M197.143 334.026C197.355 328.527 186.144 323.632 172.104 323.093C158.064 322.554 146.511 326.575 146.3 332.073C146.088 337.572 157.299 342.467 171.339 343.006C185.379 343.545 196.932 339.524 197.143 334.026Z" fill="black"/>
<path d="M61.6312 403.956C67.0028 402.75 68.861 390.664 65.7816 376.962C62.7022 363.26 55.8514 353.129 50.4798 354.335C45.1082 355.541 43.25 367.627 46.3293 381.329C49.4087 395.032 56.2596 405.162 61.6312 403.956Z" fill="black"/>
<path d="M83.5186 517.801C88.8902 516.595 90.7484 504.509 87.6691 490.807C84.5897 477.105 77.7388 466.974 72.3672 468.18C66.9956 469.387 65.1374 481.472 68.2168 495.175C71.2962 508.877 78.147 519.007 83.5186 517.801Z" fill="black"/>
<path d="M125.462 171.089L289.855 291.505L175.169 313.322L10.7634 192.897L125.462 171.089Z" fill="white"/>
<path d="M245.919 6.74279L125.452 171.081L289.858 291.483L410.324 127.145L245.919 6.74279Z" fill="white"/>
<path d="M245.939 6.76147L125.462 171.089L10.7634 192.897L131.232 28.5823L245.939 6.76147Z" fill="white"/>
<path d="M175.169 320.079C173.731 320.078 172.331 319.62 171.171 318.77L6.76556 198.355C5.70813 197.575 4.90086 196.504 4.44238 195.273C3.98391 194.042 3.89407 192.704 4.18386 191.423C4.47364 190.142 5.1305 188.972 6.07417 188.058C7.01784 187.144 8.20748 186.524 9.49773 186.275L124.196 164.463C125.108 164.292 126.046 164.309 126.951 164.513C127.856 164.717 128.71 165.104 129.46 165.649L293.857 286.052C294.919 286.831 295.73 287.903 296.191 289.136C296.652 290.37 296.742 291.711 296.452 292.995C296.161 294.279 295.502 295.45 294.555 296.365C293.608 297.28 292.414 297.898 291.12 298.145L176.435 319.957C176.018 320.037 175.594 320.078 175.169 320.079ZM27.3092 196.623L176.797 306.119L273.313 287.758L123.834 178.261L27.3092 196.623Z" fill="black"/>
<path d="M289.872 298.267C288.434 298.266 287.034 297.808 285.874 296.958L121.477 176.556C120.757 176.031 120.147 175.37 119.683 174.609C119.219 173.849 118.909 173.004 118.772 172.124C118.635 171.244 118.673 170.345 118.884 169.48C119.095 168.614 119.475 167.799 120.002 167.08L240.484 2.7655C241.008 2.0486 241.669 1.44213 242.428 0.980794C243.187 0.519461 244.03 0.212332 244.908 0.0769909C245.786 -0.0583503 246.682 -0.0192456 247.545 0.192066C248.408 0.403378 249.221 0.782747 249.937 1.30845L414.334 121.711C415.781 122.771 416.747 124.362 417.02 126.134C417.294 127.906 416.852 129.714 415.792 131.16L295.332 295.493C294.808 296.209 294.146 296.815 293.387 297.275C292.628 297.735 291.785 298.041 290.907 298.175C290.565 298.234 290.219 298.265 289.872 298.267ZM134.933 169.632L288.397 282.056L400.879 128.63L247.397 16.2105L134.933 169.632Z" fill="black"/>
<path d="M10.7634 199.659C9.51158 199.662 8.28362 199.317 7.21638 198.663C6.14914 198.008 5.28453 197.071 4.7189 195.955C4.15327 194.839 3.90882 193.587 4.01281 192.34C4.11679 191.093 4.56511 189.9 5.30782 188.893L125.768 24.5865C126.779 23.2038 128.278 22.2572 129.962 21.9385L244.674 0.117656C246.008 -0.13625 247.388 0.0172098 248.634 0.558061C249.88 1.09891 250.934 2.00211 251.659 3.15008C252.384 4.29806 252.747 5.63765 252.7 6.9945C252.653 8.35134 252.198 9.6626 251.395 10.7576L130.935 175.086C129.924 176.468 128.425 177.415 126.741 177.734L12.0466 199.546C11.6233 199.623 11.1937 199.661 10.7634 199.659ZM135.116 34.7247L26.3708 183.047L121.578 164.947L230.328 16.625L135.116 34.7247Z" fill="black"/>
<path d="M226.446 169.362C233.297 158.917 230.38 144.898 219.93 138.05C209.48 131.202 195.455 134.118 188.603 144.563C181.752 155.008 184.669 169.027 195.119 175.875C205.569 182.723 219.595 179.807 226.446 169.362Z" fill="black"/>
<path d="M278.623 97.7766C287.459 88.945 287.459 74.6261 278.623 65.7945C269.787 56.9628 255.461 56.9628 246.626 65.7945C237.79 74.6261 237.79 88.945 246.626 97.7766C255.461 106.608 269.787 106.608 278.623 97.7766Z" fill="black"/>
<path d="M303.904 221.578C308.976 210.164 303.831 196.8 292.411 191.73C280.991 186.66 267.621 191.803 262.549 203.218C257.476 214.632 262.622 227.996 274.042 233.066C285.462 238.136 298.831 232.993 303.904 221.578Z" fill="black"/>
<path d="M354.339 153.238C363.175 144.407 363.175 130.088 354.339 121.256C345.504 112.425 331.178 112.425 322.342 121.256C313.506 130.088 313.506 144.407 322.342 153.238C331.178 162.07 345.504 162.07 354.339 153.238Z" fill="black"/>
<path d="M81.3994 152.252C90.1345 141.252 93.7199 129.561 89.4077 126.14C85.0956 122.719 74.5187 128.863 65.7836 139.863C57.0485 150.863 53.463 162.553 57.7752 165.974C62.0874 169.395 72.6643 163.252 81.3994 152.252Z" fill="black"/>
<path d="M188.156 59.2382C196.891 48.2383 200.477 36.5478 196.165 33.1267C191.852 29.7056 181.276 35.8495 172.54 46.8494C163.805 57.8493 160.22 69.5399 164.532 72.961C168.844 76.382 179.421 70.2382 188.156 59.2382Z" fill="black"/>
<path d="M134.469 105.517C143.204 94.5167 146.79 82.8262 142.478 79.4051C138.166 75.984 127.589 82.1279 118.854 93.1278C110.118 104.128 106.533 115.818 110.845 119.239C115.157 122.66 125.734 116.517 134.469 105.517Z" fill="black"/>
<path d="M118.775 230.01C120.977 224.967 112.323 216.324 99.446 210.706C86.5688 205.088 74.3443 204.622 72.142 209.666C69.9396 214.709 78.5934 223.352 91.4707 228.97C104.348 234.588 116.572 235.053 118.775 230.01Z" fill="black"/>
<path d="M223.585 279.674C225.788 274.631 217.134 265.988 204.257 260.37C191.379 254.752 179.155 254.287 176.953 259.33C174.75 264.373 183.404 273.016 196.281 278.634C209.159 284.252 221.383 284.718 223.585 279.674Z" fill="black"/>
<path d="M288.384 162.041C297.22 153.209 297.22 138.89 288.384 130.059C279.548 121.227 265.222 121.227 256.387 130.059C247.551 138.89 247.551 153.209 256.387 162.041C265.222 170.872 279.548 170.872 288.384 162.041Z" fill="black"/>
</g>
<defs>
<filter id="filter0_d_1_2" x="0" y="0" width="491" height="692" filterUnits="userSpaceOnUse" color-interpolation-filters="sRGB">
<feFlood flood-opacity="0" result="BackgroundImageFix"/>
<feColorMatrix in="SourceAlpha" type="matrix" values="0 0 0 0 0 0 0 0 0 0 0 0 0 0 0 0 0 0 127 0" result="hardAlpha"/>
<feOffset dy="4"/>
<feGaussianBlur stdDeviation="2"/>
<feComposite in2="hardAlpha" operator="out"/>
<feColorMatrix type="matrix" values="0 0 0 0 0 0 0 0 0 0 0 0 0 0 0 0 0 0 0.25 0"/>
<feBlend mode="normal" in2="BackgroundImageFix" result="effect1_dropShadow_1_2"/>
<feBlend mode="normal" in="SourceGraphic" in2="effect1_dropShadow_1_2" result="shape"/>
</filter>
<clipPath id="clip0_1_2">
<rect width="483" height="684" fill="white" transform="translate(4)"/>
</clipPath>
</defs>
</svg>
